<svg version="1.2" xmlns="http://www.w3.org/2000/svg" viewBox="0 0 124 32" width="124" height="32">
	<title>simplex_logo-svg</title>
	<style>
		.s0 { fill: #000000 } 
	</style>
	<g id="layer1">
		<path id="Hendrik" class="s0" aria-label="Hendrik"  d="m48.1 12.8q0.5-0.2 0.4 0.1 0 0.4-0.7 1.1-0.2 0.2-0.4 0.3-2 0.9-4.7 2-0.6 3-2 9.1-1.4 6.1-2.1 9.2-0.1 0.5-0.9 1-0.7 0.5-0.8 0.2 0-0.1 0-0.2 0.5-2.1 1.1-4.6 0.5-2.6 1-4.7 0.5-2 1-4.6 0.6-2.6 1.1-4.7-3.6 1.6-9 4.1-0.8 3.4-1.6 6.9-0.1 0.4-0.8 0.9-0.8 0.5-0.9 0.2 0-0.1 0-0.1 0.8-3.6 1.6-7.1-2.8 1.3-5.6 2.6-0.5 0.2-0.4-0.1 0-0.5 0.7-1.2 0.2-0.2 0.3-0.3 2.7-1.2 5.3-2.4 1.9-8.5 3-13.5 0.1-0.5 0.9-1 0.7-0.5 0.8-0.2 0 0.1 0 0.2-1.1 5-3 13.7 5.4-2.5 9-4.1 1.5-6.7 2.9-13.4 0.1-0.4 0.9-0.9 0.7-0.5 0.8-0.2 0 0.1 0 0.1-1.5 6.9-3 13.7 2.6-1.1 5.1-2.1zm3.8 8.3q0.7-0.6 1-0.4 0.3 0.2-0.1 0.7l-0.2 0.3q-0.6 0.5-1.1 0.9-0.5 0.4-1.2 1-0.8 0.5-1.5 0.9-0.7 0.3-1.5 0.5-0.8 0.1-1.4-0.1-0.7-0.3-1.2-0.9-0.5-0.7-0.6-1.5 0-0.8 0.3-1.6 0.4-0.8 0.8-1.4 0.5-0.7 1-1.2 0.8-0.8 1.9-1.4 1.6-0.9 1.5 0.6-0.1 1.2-1.1 2.6-1 1.3-2.3 2.2 0.2 0.3 0.5 0.6 1.8 1.3 5.2-1.8zm-5.5-1.6q-0.5 0.8-0.5 1.8 0.3-0.2 0.9-0.8 0.6-0.6 1-1.3 0.4-0.7 0.1-0.9-0.2-0.1-0.5 0.1-0.3 0.3-0.6 0.6-0.2 0.3-0.4 0.5zm14.1 1.4q0.1-0.3 0.3-0.3 0.2-0.1 0 0.8-0.4 1.3-1.2 2-0.8 0.6-1.8 0.1-0.3-0.2-0.6-0.5-0.2-0.2-0.3-0.5-0.2-0.3-0.3-0.7-0.1-0.4-0.1-0.7-0.1-0.2-0.2-0.7 0-0.6 0-0.8-0.2 0.2-0.3 0.2-0.5 0.6-1.5 2.2-1.1 1.8-2.1 3.5-0.2 0.4-0.7-0.4-0.5-0.7-0.4-1l2.2-9.1q0.1-0.2 0.5 0.3 0.7 0.8 0.6 1.2l-0.9 3.6q0.4-0.7 0.6-1.1 0.3-0.4 0.7-0.9 0.5-0.6 0.8-0.7 0.3 0 0.5 0.1 0.3 0.2 0.4 0.5 0.2 0.4 0.3 0.6 0.1 0.3 0.2 0.6 0 0.2 0.1 0.8 0.1 0.6 0.2 1 0 0.4 0.2 0.8 0.2 0.4 0.5 0.6 0.7 0.5 1.4 0 0.7-0.6 0.9-1.5zm8.4 0.7q0.1-0.3 0.6 0.3 0.6 0.8 0.5 1.2 0 0.1-0.1 0.3-0.1 0.2-0.2 0.4 0 0.2-0.2 0.5-0.1 0.4-0.2 0.6-0.1 0.2-0.3 0.5-0.2 0.4-0.3 0.6-0.2 0.2-0.4 0.4-0.2 0.3-0.3 0.4-0.2 0.1-0.4 0.2-0.2 0.1-0.5 0.1-0.2 0-0.4-0.1-1.1-0.6-1.7-3.1-0.1-0.4-0.1-0.7-1.7 4.2-3.5 3.5-0.9-0.4-1.4-1.3-0.4-0.8-0.4-1.8 0-1 0.2-1.9 0.2-1 0.5-1.8 0.2-0.5 0.4-0.9 0.1-0.3 0.4-0.8 0.2-0.5 0.5-0.7 0.2-0.3 0.5-0.5 0.3-0.3 0.6-0.3 0.3 0 0.7 0.2 0.4 0.2 0.8 0.6 0.3 0.3 0.4 1 0.1 0.4-0.1 0.4-0.1 0-0.4-0.3-0.5-0.4-1-0.1-0.5 0.3-1 1.2-0.4 0.9-0.7 1.7-0.3 0.7-0.5 1.2 0 0.4-0.1 0.7 0 0.4 0 0.9 0.1 0.4 0.4 0.6 0.3 0.3 0.8 0.2 0.9-0.1 1.8-2.7 0.1-0.5 0.3-1.1 0.1-0.6 0.3-1.4 0.2-0.8 0.3-1.1 1.4-5.6 3-12.8 0-0.2 0.5 0.3 0.7 0.7 0.6 1.2-0.1 0.3-0.6 2.7-0.4 2.4-1 5.1-0.6 2.8-1.3 5-0.1 1.7 0 3.4 0.2 1.4 0.4 1.6 0.3 0.4 0.8-0.2 1.2-1.5 1.8-3.4zm6.6 1.3q0.4-0.6 1-1 0.4-0.2 0.4 0 0 0.2-0.2 0.5-0.5 0.6-0.7 1-0.3 0.4-0.8 0.9-0.4 0.6-0.9 0.9-0.5 0.4-1 0.6-0.8 0.3-1.2-0.1-0.4-0.5-0.3-1.4 0-0.3 0.1-0.8 0.2-0.6 0.2-0.9 0.1-0.3 0-0.9-0.1-0.2-0.3-0.4-0.1-0.2-0.3-0.4-0.3-0.1-0.5-0.2-0.2-0.1-0.5-0.3-0.2-0.1-0.4-0.3-0.4 0.3-0.7 0.6-0.7 0.6-0.8 0.2-0.1-0.5 0.4-1 0.1-0.1 0.2-0.2 0.1-0.1 0.3-0.3-0.9-1.2-0.7-2.6 0-0.7 0.6-1.7 0.5-1 1.3-1.4 0.7-0.5 1.5 0.4 1.3 1.7-0.6 4.4 0.2 0.2 0.7 0.6 0.5 0.3 0.8 0.5 0.3 0.2 0.5 0.6 0.2 0.5 0.2 1.1 0 0.3-0.2 1.1-0.2 0.7-0.2 1.1 0.1 1.3 1.2 0.4 0.5-0.4 0.9-1zm-4.7-5.4q0.2-0.5 0.1-1.1-0.1-0.4-0.4-0.8-0.1 0.4-0.1 0.5 0.1 0.7 0.4 1.4zm10.8 4.6q0.1-0.3 0.6 0.3 0.6 0.7 0.5 1.1 0 0 0 0.1-0.5 0.8-1.2 1.4-0.7 0.7-1.5 1-0.9 0.4-1.7 0.1-0.8-0.2-1.4-1.2-0.3-0.6-0.5-1.3-0.1-0.7-0.1-1.3 0.1-0.6 0.3-1.4 0.2-0.8 0.4-1.3 0.2-0.6 0.5-1.3 0.1-0.3 0.6 0.3 0.6 0.8 0.4 1.2-1 2.2-1 4.6 0 0 0 0 0 0 0 0l0.1 0.1q0.1 0 0.4 0 0.3 0.1 0.5 0.1 1-0.2 1.7-0.9 0.8-0.7 1.4-1.6zm-3.8-4.9q-0.2 0-0.3-0.1-0.2-0.1-0.4-0.3-0.1-0.3-0.3-0.5-0.1-0.3-0.1-0.5 0-0.2 0.1-0.3 0.9-0.5 1.5-0.7 0.5-0.2 0.8-0.1 0.4 0.3 0.6 0.8 0.2 0.5 0 0.9-0.1 0.1-0.3 0 0 0-0.1 0 0 0 0 0-0.3 0.1-0.7 0.3-0.4 0.2-0.8 0.5zm11.6 6.3q0.2-0.4 0.9-0.9 0.8-0.5 0.9-0.2 0 0.1-0.1 0.1-0.1 0.8-0.5 1.5-0.3 0.8-0.7 1.5-0.4 0.7-1.1 1.3-0.6 0.5-1.3 0.7-0.5 0.1-0.8 0.2-0.4 0-0.8-0.2-0.4-0.2-0.7-0.4-0.3-0.2-0.5-0.5-0.3-0.4-0.6-0.7-0.2-0.4-0.4-0.8-0.2-0.4-0.4-0.8-0.1-0.4-0.3-0.8-0.2 0.5-0.5 1.1l-0.2 1.4q-0.1 0.4-0.7 1-0.9 0.7-1 0.2-0.1-0.9 0.3-1.7l3-18.2q0.1-0.5 0.9-1 0.7-0.5 0.8-0.2 0 0.1 0 0.2l-2.5 15q0.4-0.7 0.8-1.3 0.3-0.6 0.9-1.2 0.5-0.7 1.1-1.2 0.6-0.5 1.2-0.7 1-0.4 1.4-0.1 0.5 0.3 0.4 1 0 0.6-0.5 1.3-1.5 2-3.7 3 0.9 2.1 2 3.1 1.6 1.4 2.5-0.8 0.1-0.4 0.2-0.9zm-4.8-2.7q0 0.1-0.2 0.3 1.1-0.4 2-1.2 1.4-1.6 0.7-1.5-0.5 0.1-1.3 0.7-0.1 0.1-0.2 0.2-0.5 0.7-1 1.5z"/>
	</g>
</svg>